<?xml version="1.0" encoding="utf-8"?>
<!-- Generator: Adobe Illustrator 21.0.0, SVG Export Plug-In . SVG Version: 6.00 Build 0)  -->
<svg version="1.1" id="Layer_1" xmlns="http://www.w3.org/2000/svg" xmlns:xlink="http://www.w3.org/1999/xlink" x="0px" y="0px"
	 viewBox="0 0 2500 1700" style="enable-background:new 0 0 2500 1700;" xml:space="preserve">
<style type="text/css">
	.st0{fill:#DB0D6E;}
	.st1{fill:#008BBC;}
	.st2{opacity:0.26;}
	.st3{fill:#FFFFFF;}
</style>
<g>
	<path class="st0" d="M1056,803l34.6-162h-74.3l6-28.6h184.9l-6,28.6h-74.6L1092,803H1056z"/>
	<path class="st0" d="M1284.2,658.7c11.3,0,19.5,3.1,24.8,9.4c5.3,6.3,7.9,13.7,7.9,22.5c0,4-0.4,7.5-1.1,10.6l-16.6,77.3
		c-1.8,8.2-4.8,14.3-9,18.4c-4.2,4.1-11.1,6.1-20.7,6.1h-70c-10,0-17.5-2.8-22.6-8.3c-5.1-5.5-7.6-13.5-7.6-23.8
		c0-2.4,0-4.9,0.1-7.5c0.1-2.6,0.4-5.3,1-8c3.1-13.6,8-24,14.8-31.3c6.8-7.3,17-10.9,30.6-10.9h65.3l2.2-9.3
		c0.5-2.4,0.8-4.5,0.8-6.5c0-9.4-5.5-14.2-16.6-14.2H1197l5.2-24.5H1284.2z M1222.9,737.7c-5.4,0-9.7,1.5-12.7,4.4
		c-3,2.9-5.3,7.9-6.9,15c-0.9,3.6-1.4,6.8-1.4,9.5c0,8,4.1,12,12.3,12h44.9c5.6,0,9-2.7,10.1-8.2l6.8-32.7H1222.9z"/>
	<path class="st0" d="M1421.7,658.7c8.9,0,16.5,1.1,22.9,3.4c6.4,2.3,11.5,5.5,15.5,9.7c4,4.2,6.9,9.2,8.7,15
		c1.8,5.8,2.7,12.3,2.7,19.6c0,4.2-0.3,8.5-1,12.9c-0.6,4.5-1.4,9.1-2.3,14c-2.4,11.6-5.3,21.8-8.7,30.5c-3.4,8.7-8,16-13.7,21.8
		c-5.7,5.8-12.8,10.2-21.2,13.1c-8.4,2.9-18.7,4.4-30.9,4.4h-43l-9.8,46.3h-31.6l35.1-166.1c1.8-8.2,4.8-14.3,9-18.4
		c4.2-4.1,11.1-6.1,20.7-6.1H1421.7z M1356,778.5h35.1c7.6,0,14-1.2,19.1-3.7c5.1-2.5,9.2-5.8,12.4-10.1c3.2-4.3,5.7-9.3,7.6-15.1
		c1.9-5.8,3.6-12.2,5-19.1c0.9-4.4,1.7-8.5,2.3-12.4c0.6-3.9,1-7.6,1-11c0-7.4-1.9-13.3-5.7-17.6c-3.8-4.3-11-6.4-21.5-6.4h-27
		c-5.4,0-8.7,2.4-9.8,7.1L1356,778.5z"/>
</g>
<path class="st1" d="M1517.5,803l34.6-162h-74.3l6-28.6h184.9l-6,28.6H1588l-34.6,162H1517.5z"/>
<path class="st1" d="M1745.6,658.7c11.3,0,19.5,3.1,24.8,9.4c5.3,6.3,7.9,13.7,7.9,22.5c0,4-0.4,7.5-1.1,10.6l-16.6,77.3
	c-1.8,8.2-4.8,14.3-9,18.4c-4.2,4.1-11.1,6.1-20.7,6.1h-70c-10,0-17.5-2.8-22.6-8.3c-5.1-5.5-7.6-13.5-7.6-23.8c0-2.4,0-4.9,0.1-7.5
	c0.1-2.6,0.4-5.3,1-8c3.1-13.6,8-24,14.8-31.3c6.8-7.3,17-10.9,30.6-10.9h65.3l2.2-9.3c0.5-2.4,0.8-4.5,0.8-6.5
	c0-9.4-5.5-14.2-16.6-14.2h-70.5l5.2-24.5H1745.6z M1684.4,737.7c-5.4,0-9.7,1.5-12.7,4.4c-3,2.9-5.3,7.9-6.9,15
	c-0.9,3.6-1.4,6.8-1.4,9.5c0,8,4.1,12,12.3,12h44.9c5.6,0,9-2.7,10.1-8.2l6.8-32.7H1684.4z"/>
<path class="st1" d="M1876.9,803l-25-53.4l-48.7,53.4h-38.7l70.8-74.1l-37.8-70.2h34.6l23.1,49.6l45.5-49.6h37.8l-66.4,70.2
	l40.6,74.1H1876.9z"/>
<path class="st0" d="M689.9,497.7c40.8,0,74.6,0,115.4,0c5.8,0,5.8,0,5.8,5.9c0,26.8,0,53.5,0.1,80.3c0,5.4,0,5.4,5.5,5.4
	c15.7,0,31.4,0,47.1,0c5.5,0,5.6,0,5.6,5.4c0,26.3,0,52.7,0.1,79c0,3.6-1.1,4.7-4.6,4.7c-16.1-0.1-32.2,0.1-48.3-0.1
	c-4.1,0-5.4-0.1-5.4-0.1c0.2,26.1-1.8,57.6-1.8,83.7c0,6,0,6-6.2,6c-20.7,0-34.5,0.1-55.2,0c-3.4,0-5,0.8-5.6,4.6
	c-2.4,17.8-4.2,35.2-11,51.8c-7.1,17.4-16.6,33.1-31.5,45.2c-16.4,13.3-35.4,18.7-56.2,16.8c-39.4-3.5-59.7-27.5-71.8-63.1
	c-5.8-17.1-8.2-34.8-8.3-52.7c-0.2-28.8-0.1-57.6-0.1-86.4c0-5.6,0.1-94.8,0.1-100.2c0-26.9,0-53.8,0.1-80.7c0-5.6,0-5.6,5.8-5.6
	C610.3,497.7,649.1,497.7,689.9,497.7C689.9,497.7,689.9,497.7,689.9,497.7z"/>
<path class="st1" d="M953.7,797.2c-58.4,0-116.8,0.1-175.2-0.1c-4.1,0-5.5,1.3-6.3,5.3c-4.4,22.3-11.4,43.3-24.4,62
	c-26.5,38.1-62.3,56.3-109.1,50.8c-4.3-0.5-8.8-1.6-14.1-2.5c1.2,1.4,1.9,2,2.3,2.5c14.6,13.6,31.1,24.4,49.4,32.3
	c20.5,8.8,41.9,13.7,64.1,15.6c29.4,2.5,58.3-0.1,86.4-9.7c31.6-10.8,58.7-28.5,81.6-52.8c25.5-27.1,40.8-59,48.9-95.2
	c0.6-2.6,1.1-5.1,1.4-8.3C956.4,797.2,955,797.2,953.7,797.2z M784.5,836.7h58.6c1.5,0,2.7,1.2,2.7,2.7c0,1.5-1.2,2.7-2.7,2.7h-58.6
	c-1.5,0-2.7-1.2-2.7-2.7C781.7,838,783,836.7,784.5,836.7z M854.8,871.7h-85.4c-1.5,0-2.7-1.2-2.7-2.7c0-1.5,1.2-2.7,2.7-2.7h85.4
	c1.5,0,2.7,1.2,2.7,2.7C857.6,870.4,856.3,871.7,854.8,871.7z M897.1,855H777.7c-1.5,0-2.7-1.2-2.7-2.7s1.2-2.7,2.7-2.7h119.3
	c1.5,0,2.7,1.2,2.7,2.7S898.6,855,897.1,855z M928,828.2H791.5c-1.5,0-2.7-1.2-2.7-2.7c0-1.5,1.2-2.7,2.7-2.7H928
	c1.5,0,2.7,1.2,2.7,2.7C930.8,827,929.5,828.2,928,828.2z"/>
<rect y="1278.9" class="st1" width="2500" height="421.1"/>
<g class="st2">
	<path class="st3" d="M1517.5,1579.9l34.6-162h-74.3l6-28.6h184.9l-6,28.6H1588l-34.6,162H1517.5z"/>
	<path class="st3" d="M1745.6,1435.6c11.3,0,19.5,3.1,24.8,9.4c5.3,6.3,7.9,13.7,7.9,22.5c0,4-0.4,7.5-1.1,10.6l-16.6,77.3
		c-1.8,8.2-4.8,14.3-9,18.4c-4.2,4.1-11.1,6.1-20.7,6.1h-70c-10,0-17.5-2.8-22.6-8.3c-5.1-5.5-7.6-13.5-7.6-23.8
		c0-2.4,0-4.9,0.1-7.5c0.1-2.6,0.4-5.3,1-8c3.1-13.6,8-24,14.8-31.3c6.8-7.3,17-10.9,30.6-10.9h65.3l2.2-9.3
		c0.5-2.4,0.8-4.5,0.8-6.5c0-9.4-5.5-14.2-16.6-14.2h-70.5l5.2-24.5H1745.6z M1684.4,1514.5c-5.4,0-9.7,1.5-12.7,4.4
		c-3,2.9-5.3,7.9-6.9,15c-0.9,3.6-1.4,6.8-1.4,9.5c0,8,4.1,12,12.3,12h44.9c5.6,0,9-2.7,10.1-8.2l6.8-32.7H1684.4z"/>
	<path class="st3" d="M1883.1,1435.6c8.9,0,16.5,1.1,22.9,3.4c6.4,2.3,11.5,5.5,15.5,9.7c4,4.2,6.9,9.2,8.7,15
		c1.8,5.8,2.7,12.3,2.7,19.6c0,4.2-0.3,8.5-1,12.9c-0.6,4.5-1.4,9.1-2.3,14c-2.4,11.6-5.3,21.8-8.7,30.5c-3.4,8.7-8,16-13.7,21.8
		c-5.7,5.8-12.8,10.2-21.2,13.1c-8.4,2.9-18.7,4.4-30.9,4.4h-43l-9.8,46.3h-31.6l35.1-166.1c1.8-8.2,4.8-14.3,9-18.4
		c4.2-4.1,11.1-6.1,20.7-6.1H1883.1z M1817.5,1555.4h35.1c7.6,0,14-1.2,19.1-3.7c5.1-2.5,9.2-5.8,12.4-10.1
		c3.2-4.3,5.7-9.3,7.6-15.1c1.9-5.8,3.6-12.2,5-19.1c0.9-4.4,1.7-8.5,2.3-12.4c0.6-3.9,1-7.6,1-11c0-7.4-1.9-13.3-5.7-17.6
		c-3.8-4.3-11-6.4-21.5-6.4h-27c-5.4,0-8.7,2.4-9.8,7.1L1817.5,1555.4z"/>
	<path class="st3" d="M1979,1579.9l34.6-162h-74.3l6-28.6h184.9l-6,28.6h-74.6l-34.6,162H1979z"/>
	<path class="st3" d="M2207.1,1435.6c11.3,0,19.5,3.1,24.8,9.4c5.3,6.3,7.9,13.7,7.9,22.5c0,4-0.4,7.5-1.1,10.6l-16.6,77.3
		c-1.8,8.2-4.8,14.3-9,18.4c-4.2,4.1-11.1,6.1-20.7,6.1h-70c-10,0-17.5-2.8-22.6-8.3c-5.1-5.5-7.6-13.5-7.6-23.8
		c0-2.4,0-4.9,0.1-7.5c0.1-2.6,0.4-5.3,1-8c3.1-13.6,8-24,14.8-31.3c6.8-7.3,17-10.9,30.6-10.9h65.3l2.2-9.3
		c0.5-2.4,0.8-4.5,0.8-6.5c0-9.4-5.5-14.2-16.6-14.2H2120l5.2-24.5H2207.1z M2145.8,1514.5c-5.4,0-9.7,1.5-12.7,4.4
		c-3,2.9-5.3,7.9-6.9,15c-0.9,3.6-1.4,6.8-1.4,9.5c0,8,4.1,12,12.3,12h44.9c5.6,0,9-2.7,10.1-8.2l6.8-32.7H2145.8z"/>
	<path class="st3" d="M2338.3,1579.9l-25-53.4l-48.7,53.4h-38.7l70.8-74.1l-37.8-70.2h34.6l23.1,49.6l45.5-49.6h37.8l-66.4,70.2
		l40.6,74.1H2338.3z"/>
</g>
</svg>
